 http://desibbrg.org/images/66952052392581364616.gif 
http://desibbrg.org/images/76512797196754567082.png 
http://desibbrg.org/images/02762068666825205999.png 
http://desibbrg.org/images/73439186660924403015.png 
http://desibbrg.org/images/28294375935659408288.png

Media Info - 
General
Complete name                  : Anchhuyee- Hot Masala Movie x264 [TMB].mp4
Format                         : MPEG-4
Format profile                 : Base Media / Version 2
Codec ID                       : mp42
File size                      : 614 MiB
Duration                       : 1h 54mn
Overall bit rate mode          : Variable
Overall bit rate               : 749 Kbps

Video
ID                             : 1
Format                         : AVC
Format/Info                    : Advanced Video Codec
Format profile                 : Main@L3.0
Format settings, CABAC         : Yes
Format settings, ReFrames      : 4 frames
Codec ID                       : avc1
Codec ID/Info                  : Advanced Video Coding
Duration                       : 1h 54mn
Bit rate mode                  : Variable
Bit rate                       : 611 Kbps
Width                          : 640 pixels
Height                         : 360 pixels
Display aspect ratio           : 16:9
Frame rate mode                : Constant
Frame rate                     : 24.000 fps
Color space                    : YUV
Chroma subsampling             : 4:2:0
Bit depth                      : 8 bits
Scan type                      : Progressive
Bits/(Pixel*Frame)             : 0.111
Stream size                    : 501 MiB (82%)
Writing library                : x264 core 120
Color primaries                : BT.601 NTSC
Transfer characteristics       : BT.709
Matrix coefficients            : BT.601

Audio
ID                             : 2
Format                         : AAC
Format/Info                    : Advanced Audio Codec
Format profile                 : LC
Codec ID                       : 40
Duration                       : 1h 54mn
Bit rate mode                  : Variable
Bit rate                       : 132 Kbps
Maximum bit rate               : 187 Kbps
Channel(s)                     : 2 channels
Channel positions              : Front: L R
Sampling rate                  : 44.1 KHz
Compression mode               : Lossy
Delay relative to video        : 83ms
Stream size                    : 110 MiB (18%)

Ripper : SaketSaket

Seeding 24x7... Extreme Seeding...


Enjoy!